<svg version="1.2" xmlns="http://www.w3.org/2000/svg" viewBox="0 0 2561 1468" width="2561" height="1468"><defs><linearGradient id="P" gradientUnits="userSpaceOnUse"/><linearGradient id="g1" x2="1" href="#P" gradientTransform="matrix(-854.7,-1499.063,1739.412,-991.736,2874.5,732.697)"><stop stop-color="#9c27b0"/><stop offset="1" stop-color="#6a1b9a"/></linearGradient><clipPath clipPathUnits="userSpaceOnUse" id="cp1"><path d="m0.49 0h2560v1468h-2560z"/></clipPath></defs><style>.a{fill:url(#g1)}.b{opacity:.15;fill:#8bc34a}.c{opacity:.21;fill:#fff}.d{opacity:.2;fill:#fff}.e{fill:#fff}</style><path fill-rule="evenodd" class="a" d="m0.5 0h2560v1468h-2560z"/><g clip-path="url(#cp1)"><path fill-rule="evenodd" class="b" d="m0.5 0h805.4c0 0-111.4 0 28.6 230.8 81.6 134.5 211 282.7 211 421.2 0 154.3-93.1 250.6-140.5 439.6-45.6 181.9 107.1 376.4 107.1 376.4h-1011.6z"/><path fill-rule="evenodd" class="b" d="m3127.5 1592.1l-967.1-107.2c0 0 404.3-607 237.4-846.7-96.9-139-216.7-234.6-219.6-399.3-3.2-183.5 143-269.7 186.9-495.2 42.3-217.2-112.4-468.7-112.4-468.7l1022-17.8z"/></g><path fill-rule="evenodd" class="c" d="m-2.5 1224c0 0 217.5 218 536 218 318.5 0 416.2-244.6 773.5-218.2 357.4 26.4 544.8 161.7 853.7 182 600.6 39.5 1023.8-92.5 1023.8-92.5l-161.5 247.2-3119.5-65.5z"/><path fill-rule="evenodd" class="d" d="m3174.7 1127.5c0 0-188.1 243.3-506.2 260-318.1 16.7-327.6-126.2-683.1-81.2-355.4 45.1-353.1 123.4-660.5 159.8-135.9 16.1-398.4-370.6-911.6-149.5-513.1 221.2-1361.3-343.2-1361.3-343.2l722 494.6 3400.5 27z"/><path fill-rule="evenodd" class="e" d="m-2.5 1301.3c0 0 64.7 145.5 345.5 145.5 280.8 0 355.5-208.4 670.5-182 315 26.4 480.3 161.7 752.5 182 359.6 26.8 647.1-25.5 794.5-61.8v110l-2592-27z"/></svg>