<svg width="56" height="48" viewBox="0 0 56 48" fill="none" xmlns="http://www.w3.org/2000/svg">
<path fill-rule="evenodd" clip-rule="evenodd" d="M49.1625 32.5554C43.9875 30.6031 44.3 31.3865 44.3 27.7679C44.3 25.43 45.4625 26.2881 46.2 21.8363C46.4875 20.0829 46.725 21.2518 47.3375 18.4414C47.6625 16.9741 47.1125 16.8622 47.1875 16.1658C47.25 15.4694 47.3125 14.8352 47.4375 13.4052C47.5875 11.6145 45.9875 6.93886 40.2625 6.93886C34.5375 6.93886 32.9375 11.6145 33.0875 13.4052C33.2 14.8477 33.275 15.4694 33.3375 16.1658C33.4 16.8622 32.8625 16.9741 33.1875 18.4414C33.8 21.2518 34.0375 20.0705 34.325 21.8363C35.0625 26.2881 36.2125 25.4425 36.2125 27.7679C36.2125 29.4342 36.6 30.1306 34.35 31.1876C35.025 31.4238 35.8125 31.7098 36.7625 32.0705C43.5625 34.6446 43.4 37.144 43.575 38.3254C43.7 39.1337 43.7625 45.5751 43.7875 47.8756H56C56 47.8756 56 37.8653 55.8125 36.6964C55.675 35.7762 54.4375 34.5575 49.1625 32.5554Z" fill="black" fill-opacity="0.54"/>
<path fill-rule="evenodd" clip-rule="evenodd" d="M40.625 47.8756C40.625 47.8756 40.625 46.1223 40.6 44.0953C40.575 41.7824 40.5125 39.1212 40.3875 38.3254C40.2 37.144 38.6 35.5648 31.8125 32.9907C30.875 32.6425 30.0875 32.3565 29.4 32.1078C25.2375 30.6404 25.5375 30.1554 25.5375 26.1389C25.5375 23.1171 27.0375 25.0819 27.9875 19.3492C28.3625 17.086 28.6625 18.5907 29.45 14.972C29.875 13.0819 29.1625 12.9326 29.25 12.0249C29.3375 11.1171 29.425 10.3088 29.575 8.45596C29.775 6.15544 27.7125 0.111916 20.3125 0.111916C12.9125 0.111916 10.8625 6.143 11.05 8.45596C11.2 10.3088 11.2875 11.1171 11.3875 12.0249C11.475 12.9326 10.7625 13.0694 11.1875 14.972C11.9875 18.5907 12.2875 17.086 12.6625 19.3492C13.6125 25.0819 15.1 23.1171 15.1 26.1389C15.1 30.8145 15.5125 30.4663 8.825 32.9907C2.0375 35.5648 0.4375 37.144 0.25 38.3254C0 39.83 0 47.8756 0 47.8756H20.3125H40.625Z" fill="black" fill-opacity="0.54"/>
</svg>
